<?xml version="1.0" encoding="UTF-8" standalone="no"?>
<!DOCTYPE svg PUBLIC "-//W3C//DTD SVG 1.1//EN"
 "http://www.w3.org/Graphics/SVG/1.1/DTD/svg11.dtd">
<!-- Generated by graphviz version 5.0.0 (20220707.1540)
 -->
<!-- Title: dependencies Pages: 1 -->
<svg width="819pt" height="247pt"
 viewBox="0.00 0.00 819.00 246.80" xmlns="http://www.w3.org/2000/svg" xmlns:xlink="http://www.w3.org/1999/xlink">
<g id="graph0" class="graph" transform="scale(1 1) rotate(0) translate(4 242.8)">
<title>dependencies</title>
<polygon fill="white" stroke="transparent" points="-4,4 -4,-242.8 815,-242.8 815,4 -4,4"/>
<text text-anchor="middle" x="405.5" y="-8.2" font-family="sans-serif" font-size="14.00">dependencies</text>
<g id="clust1" class="cluster">
<title>cluster_NgxSnotifireModule</title>
<polygon fill="none" stroke="black" stroke-dasharray="1,5" points="8,-32.8 8,-230.8 803,-230.8 803,-32.8 8,-32.8"/>
</g>
<g id="clust2" class="cluster">
<title>cluster_NgxSnotifireModule_declarations</title>
<polygon fill="none" stroke="black" points="16,-40.8 16,-92.8 795,-92.8 795,-40.8 16,-40.8"/>
</g>
<g id="clust10" class="cluster">
<title>cluster_NgxSnotifireModule_exports</title>
<polygon fill="none" stroke="black" points="315,-170.8 315,-222.8 489,-222.8 489,-170.8 315,-170.8"/>
</g>
<!-- ButtonsComponent -->
<g id="node1" class="node">
<title>ButtonsComponent</title>
<polygon fill="#ffffb3" stroke="black" points="787.4,-84.8 662.6,-84.8 662.6,-48.8 787.4,-48.8 787.4,-84.8"/>
<text text-anchor="middle" x="725" y="-62.6" font-family="Times,serif" font-size="14.00">ButtonsComponent</text>
</g>
<!-- NgxSnotifireModule -->
<g id="node7" class="node">
<title>NgxSnotifireModule</title>
<polygon fill="#8dd3c7" stroke="black" points="468.16,-149.8 465.16,-153.8 444.16,-153.8 441.16,-149.8 335.84,-149.8 335.84,-113.8 468.16,-113.8 468.16,-149.8"/>
<text text-anchor="middle" x="402" y="-127.6" font-family="Times,serif" font-size="14.00">NgxSnotifireModule</text>
</g>
<!-- ButtonsComponent&#45;&gt;NgxSnotifireModule -->
<g id="edge1" class="edge">
<title>ButtonsComponent&#45;&gt;NgxSnotifireModule</title>
<path fill="none" stroke="black" d="M725,-85.08C725,-106.12 725,-137.8 725,-137.8 725,-137.8 478.53,-137.8 478.53,-137.8"/>
<polygon fill="black" stroke="black" points="478.53,-134.3 468.53,-137.8 478.53,-141.3 478.53,-134.3"/>
</g>
<!-- KeysPipe -->
<g id="node2" class="node">
<title>KeysPipe</title>
<polygon fill="#ffffb3" stroke="black" points="644.66,-84.8 575.34,-84.8 575.34,-48.8 644.66,-48.8 644.66,-84.8"/>
<text text-anchor="middle" x="610" y="-62.6" font-family="Times,serif" font-size="14.00">KeysPipe</text>
</g>
<!-- KeysPipe&#45;&gt;NgxSnotifireModule -->
<g id="edge2" class="edge">
<title>KeysPipe&#45;&gt;NgxSnotifireModule</title>
<path fill="none" stroke="black" d="M610,-84.82C610,-102.17 610,-125.8 610,-125.8 610,-125.8 478.38,-125.8 478.38,-125.8"/>
<polygon fill="black" stroke="black" points="478.38,-122.3 468.38,-125.8 478.38,-129.3 478.38,-122.3"/>
</g>
<!-- NgxSnotifireComponent -->
<g id="node3" class="node">
<title>NgxSnotifireComponent</title>
<polygon fill="#ffffb3" stroke="black" points="557.44,-84.8 402.56,-84.8 402.56,-48.8 557.44,-48.8 557.44,-84.8"/>
<text text-anchor="middle" x="480" y="-62.6" font-family="Times,serif" font-size="14.00">NgxSnotifireComponent</text>
</g>
<!-- NgxSnotifireComponent&#45;&gt;NgxSnotifireModule -->
<g id="edge3" class="edge">
<title>NgxSnotifireComponent&#45;&gt;NgxSnotifireModule</title>
<path fill="none" stroke="black" d="M435.56,-84.91C435.56,-84.91 435.56,-103.79 435.56,-103.79"/>
<polygon fill="black" stroke="black" points="432.06,-103.79 435.56,-113.79 439.06,-103.79 432.06,-103.79"/>
</g>
<!-- PromptComponent -->
<g id="node4" class="node">
<title>PromptComponent</title>
<polygon fill="#ffffb3" stroke="black" points="385.06,-84.8 262.94,-84.8 262.94,-48.8 385.06,-48.8 385.06,-84.8"/>
<text text-anchor="middle" x="324" y="-62.6" font-family="Times,serif" font-size="14.00">PromptComponent</text>
</g>
<!-- PromptComponent&#45;&gt;NgxSnotifireModule -->
<g id="edge4" class="edge">
<title>PromptComponent&#45;&gt;NgxSnotifireModule</title>
<path fill="none" stroke="black" d="M360.48,-84.91C360.48,-84.91 360.48,-103.79 360.48,-103.79"/>
<polygon fill="black" stroke="black" points="356.98,-103.79 360.48,-113.79 363.98,-103.79 356.98,-103.79"/>
</g>
<!-- ToastComponent -->
<g id="node5" class="node">
<title>ToastComponent</title>
<polygon fill="#ffffb3" stroke="black" points="245.44,-84.8 132.56,-84.8 132.56,-48.8 245.44,-48.8 245.44,-84.8"/>
<text text-anchor="middle" x="189" y="-62.6" font-family="Times,serif" font-size="14.00">ToastComponent</text>
</g>
<!-- ToastComponent&#45;&gt;NgxSnotifireModule -->
<g id="edge5" class="edge">
<title>ToastComponent&#45;&gt;NgxSnotifireModule</title>
<path fill="none" stroke="black" d="M189,-84.82C189,-102.17 189,-125.8 189,-125.8 189,-125.8 325.77,-125.8 325.77,-125.8"/>
<polygon fill="black" stroke="black" points="325.77,-129.3 335.77,-125.8 325.77,-122.3 325.77,-129.3"/>
</g>
<!-- TruncatePipe -->
<g id="node6" class="node">
<title>TruncatePipe</title>
<polygon fill="#ffffb3" stroke="black" points="114.14,-84.8 23.86,-84.8 23.86,-48.8 114.14,-48.8 114.14,-84.8"/>
<text text-anchor="middle" x="69" y="-62.6" font-family="Times,serif" font-size="14.00">TruncatePipe</text>
</g>
<!-- TruncatePipe&#45;&gt;NgxSnotifireModule -->
<g id="edge6" class="edge">
<title>TruncatePipe&#45;&gt;NgxSnotifireModule</title>
<path fill="none" stroke="black" d="M69,-85.08C69,-106.12 69,-137.8 69,-137.8 69,-137.8 325.81,-137.8 325.81,-137.8"/>
<polygon fill="black" stroke="black" points="325.81,-141.3 335.81,-137.8 325.81,-134.3 325.81,-141.3"/>
</g>
<!-- NgxSnotifireComponent  -->
<g id="node8" class="node">
<title>NgxSnotifireComponent </title>
<polygon fill="#fb8072" stroke="black" points="480.93,-214.8 323.07,-214.8 323.07,-178.8 480.93,-178.8 480.93,-214.8"/>
<text text-anchor="middle" x="402" y="-192.6" font-family="Times,serif" font-size="14.00">NgxSnotifireComponent </text>
</g>
<!-- NgxSnotifireModule&#45;&gt;NgxSnotifireComponent  -->
<g id="edge7" class="edge">
<title>NgxSnotifireModule&#45;&gt;NgxSnotifireComponent </title>
<path fill="none" stroke="black" stroke-dasharray="5,2" d="M402,-149.91C402,-149.91 402,-168.79 402,-168.79"/>
<polygon fill="black" stroke="black" points="398.5,-168.79 402,-178.79 405.5,-168.79 398.5,-168.79"/>
</g>
</g>
</svg>
