<?xml version="1.0" encoding="UTF-8" standalone="no"?>
<!DOCTYPE svg PUBLIC "-//W3C//DTD SVG 1.1//EN"
 "http://www.w3.org/Graphics/SVG/1.1/DTD/svg11.dtd">
<!-- Generated by graphviz version 2.47.0 (20210316.0004)
 -->
<!-- Title: dependencies Pages: 1 -->
<svg width="819pt" height="284pt"
 viewBox="0.00 0.00 819.00 284.00" xmlns="http://www.w3.org/2000/svg" xmlns:xlink="http://www.w3.org/1999/xlink">
<g id="graph0" class="graph" transform="scale(1 1) rotate(0) translate(4 280)">
<title>dependencies</title>
<polygon fill="white" stroke="transparent" points="-4,4 -4,-280 815,-280 815,4 -4,4"/>
<text text-anchor="start" x="384.51" y="-42.4" font-family="Times-12" font-weight="bold" font-size="14.00">Legend</text>
<polygon fill="#ffffb3" stroke="transparent" points="171.5,-10 171.5,-30 191.5,-30 191.5,-10 171.5,-10"/>
<text text-anchor="start" x="195.13" y="-15.4" font-family="Times-12" font-size="14.00"> &#160;Declarations</text>
<polygon fill="#8dd3c7" stroke="transparent" points="284.5,-10 284.5,-30 304.5,-30 304.5,-10 284.5,-10"/>
<text text-anchor="start" x="308.23" y="-15.4" font-family="Times-12" font-size="14.00"> &#160;Module</text>
<polygon fill="#80b1d3" stroke="transparent" points="370.5,-10 370.5,-30 390.5,-30 390.5,-10 370.5,-10"/>
<text text-anchor="start" x="394.28" y="-15.4" font-family="Times-12" font-size="14.00"> &#160;Bootstrap</text>
<polygon fill="#fdb462" stroke="transparent" points="467.5,-10 467.5,-30 487.5,-30 487.5,-10 467.5,-10"/>
<text text-anchor="start" x="491.17" y="-15.4" font-family="Times-12" font-size="14.00"> &#160;Providers</text>
<polygon fill="#fb8072" stroke="transparent" points="563.5,-10 563.5,-30 583.5,-30 583.5,-10 563.5,-10"/>
<text text-anchor="start" x="587.23" y="-15.4" font-family="Times-12" font-size="14.00"> &#160;Exports</text>
<g id="clust1" class="cluster">
<title>cluster_NgxSnotifireModule</title>
<polygon fill="none" stroke="black" stroke-dasharray="1,5" points="8,-70 8,-268 803,-268 803,-70 8,-70"/>
</g>
<g id="clust2" class="cluster">
<title>cluster_NgxSnotifireModule_declarations</title>
<polygon fill="none" stroke="black" points="16,-78 16,-130 795,-130 795,-78 16,-78"/>
</g>
<g id="clust10" class="cluster">
<title>cluster_NgxSnotifireModule_exports</title>
<polygon fill="none" stroke="black" points="315,-208 315,-260 489,-260 489,-208 315,-208"/>
</g>
<!-- ButtonsComponent -->
<g id="node1" class="node">
<title>ButtonsComponent</title>
<polygon fill="#ffffb3" stroke="black" points="787.39,-122 662.61,-122 662.61,-86 787.39,-86 787.39,-122"/>
<text text-anchor="middle" x="725" y="-99.8" font-family="Times,serif" font-size="14.00">ButtonsComponent</text>
</g>
<!-- NgxSnotifireModule -->
<g id="node7" class="node">
<title>NgxSnotifireModule</title>
<polygon fill="#8dd3c7" stroke="black" points="468.15,-187 465.15,-191 444.15,-191 441.15,-187 335.85,-187 335.85,-151 468.15,-151 468.15,-187"/>
<text text-anchor="middle" x="402" y="-164.8" font-family="Times,serif" font-size="14.00">NgxSnotifireModule</text>
</g>
<!-- ButtonsComponent&#45;&gt;NgxSnotifireModule -->
<g id="edge1" class="edge">
<title>ButtonsComponent&#45;&gt;NgxSnotifireModule</title>
<path fill="none" stroke="black" d="M725,-122.28C725,-143.32 725,-175 725,-175 725,-175 478.53,-175 478.53,-175"/>
<polygon fill="black" stroke="black" points="478.53,-171.5 468.53,-175 478.53,-178.5 478.53,-171.5"/>
</g>
<!-- KeysPipe -->
<g id="node2" class="node">
<title>KeysPipe</title>
<polygon fill="#ffffb3" stroke="black" points="644.65,-122 575.35,-122 575.35,-86 644.65,-86 644.65,-122"/>
<text text-anchor="middle" x="610" y="-99.8" font-family="Times,serif" font-size="14.00">KeysPipe</text>
</g>
<!-- KeysPipe&#45;&gt;NgxSnotifireModule -->
<g id="edge2" class="edge">
<title>KeysPipe&#45;&gt;NgxSnotifireModule</title>
<path fill="none" stroke="black" d="M610,-122.02C610,-139.37 610,-163 610,-163 610,-163 478.38,-163 478.38,-163"/>
<polygon fill="black" stroke="black" points="478.38,-159.5 468.38,-163 478.38,-166.5 478.38,-159.5"/>
</g>
<!-- NgxSnotifireComponent -->
<g id="node3" class="node">
<title>NgxSnotifireComponent</title>
<polygon fill="#ffffb3" stroke="black" points="557.43,-122 402.57,-122 402.57,-86 557.43,-86 557.43,-122"/>
<text text-anchor="middle" x="480" y="-99.8" font-family="Times,serif" font-size="14.00">NgxSnotifireComponent</text>
</g>
<!-- NgxSnotifireComponent&#45;&gt;NgxSnotifireModule -->
<g id="edge3" class="edge">
<title>NgxSnotifireComponent&#45;&gt;NgxSnotifireModule</title>
<path fill="none" stroke="black" d="M435.55,-122.11C435.55,-122.11 435.55,-140.99 435.55,-140.99"/>
<polygon fill="black" stroke="black" points="432.05,-140.99 435.55,-150.99 439.05,-140.99 432.05,-140.99"/>
</g>
<!-- PromptComponent -->
<g id="node4" class="node">
<title>PromptComponent</title>
<polygon fill="#ffffb3" stroke="black" points="385.06,-122 262.94,-122 262.94,-86 385.06,-86 385.06,-122"/>
<text text-anchor="middle" x="324" y="-99.8" font-family="Times,serif" font-size="14.00">PromptComponent</text>
</g>
<!-- PromptComponent&#45;&gt;NgxSnotifireModule -->
<g id="edge4" class="edge">
<title>PromptComponent&#45;&gt;NgxSnotifireModule</title>
<path fill="none" stroke="black" d="M360.48,-122.11C360.48,-122.11 360.48,-140.99 360.48,-140.99"/>
<polygon fill="black" stroke="black" points="356.98,-140.99 360.48,-150.99 363.98,-140.99 356.98,-140.99"/>
</g>
<!-- ToastComponent -->
<g id="node5" class="node">
<title>ToastComponent</title>
<polygon fill="#ffffb3" stroke="black" points="245.44,-122 132.56,-122 132.56,-86 245.44,-86 245.44,-122"/>
<text text-anchor="middle" x="189" y="-99.8" font-family="Times,serif" font-size="14.00">ToastComponent</text>
</g>
<!-- ToastComponent&#45;&gt;NgxSnotifireModule -->
<g id="edge5" class="edge">
<title>ToastComponent&#45;&gt;NgxSnotifireModule</title>
<path fill="none" stroke="black" d="M189,-122.02C189,-139.37 189,-163 189,-163 189,-163 325.77,-163 325.77,-163"/>
<polygon fill="black" stroke="black" points="325.77,-166.5 335.77,-163 325.77,-159.5 325.77,-166.5"/>
</g>
<!-- TruncatePipe -->
<g id="node6" class="node">
<title>TruncatePipe</title>
<polygon fill="#ffffb3" stroke="black" points="114.14,-122 23.86,-122 23.86,-86 114.14,-86 114.14,-122"/>
<text text-anchor="middle" x="69" y="-99.8" font-family="Times,serif" font-size="14.00">TruncatePipe</text>
</g>
<!-- TruncatePipe&#45;&gt;NgxSnotifireModule -->
<g id="edge6" class="edge">
<title>TruncatePipe&#45;&gt;NgxSnotifireModule</title>
<path fill="none" stroke="black" d="M69,-122.28C69,-143.32 69,-175 69,-175 69,-175 325.81,-175 325.81,-175"/>
<polygon fill="black" stroke="black" points="325.81,-178.5 335.81,-175 325.81,-171.5 325.81,-178.5"/>
</g>
<!-- NgxSnotifireComponent  -->
<g id="node8" class="node">
<title>NgxSnotifireComponent </title>
<polygon fill="#fb8072" stroke="black" points="480.93,-252 323.07,-252 323.07,-216 480.93,-216 480.93,-252"/>
<text text-anchor="middle" x="402" y="-229.8" font-family="Times,serif" font-size="14.00">NgxSnotifireComponent </text>
</g>
<!-- NgxSnotifireModule&#45;&gt;NgxSnotifireComponent  -->
<g id="edge7" class="edge">
<title>NgxSnotifireModule&#45;&gt;NgxSnotifireComponent </title>
<path fill="none" stroke="black" stroke-dasharray="5,2" d="M402,-187.11C402,-187.11 402,-205.99 402,-205.99"/>
<polygon fill="black" stroke="black" points="398.5,-205.99 402,-215.99 405.5,-205.99 398.5,-205.99"/>
</g>
</g>
</svg>
