<?xml version="1.0" encoding="UTF-8" standalone="no"?>
<!DOCTYPE svg PUBLIC "-//W3C//DTD SVG 1.1//EN"
 "http://www.w3.org/Graphics/SVG/1.1/DTD/svg11.dtd">
<!-- Generated by graphviz version 2.47.0 (20210316.0004)
 -->
<!-- Title: dependencies Pages: 1 -->
<svg width="504pt" height="284pt"
 viewBox="0.00 0.00 504.00 284.00" xmlns="http://www.w3.org/2000/svg" xmlns:xlink="http://www.w3.org/1999/xlink">
<g id="graph0" class="graph" transform="scale(1 1) rotate(0) translate(4 280)">
<title>dependencies</title>
<polygon fill="white" stroke="transparent" points="-4,4 -4,-280 500,-280 500,4 -4,4"/>
<text text-anchor="start" x="227.01" y="-42.4" font-family="Times-12" font-weight="bold" font-size="14.00">Legend</text>
<polygon fill="#ffffb3" stroke="transparent" points="14,-10 14,-30 34,-30 34,-10 14,-10"/>
<text text-anchor="start" x="37.63" y="-15.4" font-family="Times-12" font-size="14.00"> &#160;Declarations</text>
<polygon fill="#8dd3c7" stroke="transparent" points="127,-10 127,-30 147,-30 147,-10 127,-10"/>
<text text-anchor="start" x="150.73" y="-15.4" font-family="Times-12" font-size="14.00"> &#160;Module</text>
<polygon fill="#80b1d3" stroke="transparent" points="213,-10 213,-30 233,-30 233,-10 213,-10"/>
<text text-anchor="start" x="236.78" y="-15.4" font-family="Times-12" font-size="14.00"> &#160;Bootstrap</text>
<polygon fill="#fdb462" stroke="transparent" points="310,-10 310,-30 330,-30 330,-10 310,-10"/>
<text text-anchor="start" x="333.67" y="-15.4" font-family="Times-12" font-size="14.00"> &#160;Providers</text>
<polygon fill="#fb8072" stroke="transparent" points="406,-10 406,-30 426,-30 426,-10 406,-10"/>
<text text-anchor="start" x="429.73" y="-15.4" font-family="Times-12" font-size="14.00"> &#160;Exports</text>
<g id="clust1" class="cluster">
<title>cluster_AppModule</title>
<polygon fill="none" stroke="black" stroke-dasharray="1,5" points="15,-70 15,-268 481,-268 481,-70 15,-70"/>
</g>
<g id="clust7" class="cluster">
<title>cluster_AppModule_providers</title>
<polygon fill="none" stroke="black" points="309,-78 309,-130 473,-130 473,-78 309,-78"/>
</g>
<g id="clust4" class="cluster">
<title>cluster_AppModule_imports</title>
<polygon fill="none" stroke="black" points="153,-78 153,-130 301,-130 301,-78 153,-78"/>
</g>
<g id="clust2" class="cluster">
<title>cluster_AppModule_declarations</title>
<polygon fill="none" stroke="black" points="23,-78 23,-130 145,-130 145,-78 23,-78"/>
</g>
<g id="clust6" class="cluster">
<title>cluster_AppModule_bootstrap</title>
<polygon fill="none" stroke="black" points="165,-208 165,-260 289,-260 289,-208 165,-208"/>
</g>
<!-- AppComponent -->
<g id="node1" class="node">
<title>AppComponent</title>
<polygon fill="#ffffb3" stroke="black" points="136.94,-122 31.06,-122 31.06,-86 136.94,-86 136.94,-122"/>
<text text-anchor="middle" x="84" y="-99.8" font-family="Times,serif" font-size="14.00">AppComponent</text>
</g>
<!-- AppModule -->
<g id="node2" class="node">
<title>AppModule</title>
<polygon fill="#8dd3c7" stroke="black" points="268.66,-187 265.66,-191 244.66,-191 241.66,-187 185.34,-187 185.34,-151 268.66,-151 268.66,-187"/>
<text text-anchor="middle" x="227" y="-164.8" font-family="Times,serif" font-size="14.00">AppModule</text>
</g>
<!-- AppComponent&#45;&gt;AppModule -->
<g id="edge1" class="edge">
<title>AppComponent&#45;&gt;AppModule</title>
<path fill="none" stroke="black" d="M84,-122.11C84,-141.34 84,-169 84,-169 84,-169 175.25,-169 175.25,-169"/>
<polygon fill="black" stroke="black" points="175.25,-172.5 185.25,-169 175.25,-165.5 175.25,-172.5"/>
</g>
<!-- AppComponent  -->
<g id="node4" class="node">
<title>AppComponent </title>
<polygon fill="#80b1d3" stroke="black" points="281.44,-252 172.56,-252 172.56,-216 281.44,-216 281.44,-252"/>
<text text-anchor="middle" x="227" y="-229.8" font-family="Times,serif" font-size="14.00">AppComponent </text>
</g>
<!-- AppModule&#45;&gt;AppComponent  -->
<g id="edge3" class="edge">
<title>AppModule&#45;&gt;AppComponent </title>
<path fill="none" stroke="black" stroke-dasharray="1,5" d="M227,-187.11C227,-187.11 227,-205.99 227,-205.99"/>
<polygon fill="black" stroke="black" points="223.5,-205.99 227,-215.99 230.5,-205.99 223.5,-205.99"/>
</g>
<!-- NgxSnotifireModule -->
<g id="node3" class="node">
<title>NgxSnotifireModule</title>
<polygon fill="#8dd3c7" stroke="black" points="293.15,-122 290.15,-126 269.15,-126 266.15,-122 160.85,-122 160.85,-86 293.15,-86 293.15,-122"/>
<text text-anchor="middle" x="227" y="-99.8" font-family="Times,serif" font-size="14.00">NgxSnotifireModule</text>
</g>
<!-- NgxSnotifireModule&#45;&gt;AppModule -->
<g id="edge2" class="edge">
<title>NgxSnotifireModule&#45;&gt;AppModule</title>
<path fill="none" stroke="black" d="M227,-122.11C227,-122.11 227,-140.99 227,-140.99"/>
<polygon fill="black" stroke="black" points="223.5,-140.99 227,-150.99 230.5,-140.99 223.5,-140.99"/>
</g>
<!-- SnotifireService -->
<g id="node5" class="node">
<title>SnotifireService</title>
<ellipse fill="#fdb462" stroke="black" cx="391" cy="-104" rx="73.57" ry="18"/>
<text text-anchor="middle" x="391" y="-99.8" font-family="Times,serif" font-size="14.00">SnotifireService</text>
</g>
<!-- SnotifireService&#45;&gt;AppModule -->
<g id="edge4" class="edge">
<title>SnotifireService&#45;&gt;AppModule</title>
<path fill="none" stroke="black" d="M391,-122.11C391,-141.34 391,-169 391,-169 391,-169 278.81,-169 278.81,-169"/>
<polygon fill="black" stroke="black" points="278.81,-165.5 268.81,-169 278.81,-172.5 278.81,-165.5"/>
</g>
</g>
</svg>
